<svg width="478" height="438" viewBox="0 0 478 438" fill="none" xmlns="http://www.w3.org/2000/svg">
<g clip-path="url(#clip0_7365_114)">
<path d="M285.969 424.279C345.666 457.303 477.769 405.964 477.768 279.221C477.767 74.0854 290.805 39.0711 181.206 39.0711C-15.3364 39.0711 -87.5115 261.139 145.748 279.221C353.663 295.338 158.52 353.772 285.969 424.279Z" fill="#FCDDD4"/>
<mask id="mask0_7365_114" style="mask-type:alpha" maskUnits="userSpaceOnUse" x="-1" y="39" width="479" height="396">
<path d="M285.916 424.279C345.612 457.303 477.715 405.964 477.714 279.221C477.713 74.0854 290.751 39.0711 181.153 39.0711C-15.3901 39.0711 -87.5652 261.139 145.694 279.221C353.609 295.338 158.466 353.772 285.916 424.279Z" fill="#F6A182"/>
</mask>
<g mask="url(#mask0_7365_114)">
<path opacity="0.7" d="M11 296.876C32.1564 269.391 88.1923 215.795 143.085 221.292C211.7 228.164 81.3308 357 143.085 357C204.838 357 234 198.961 278.6 198.961C323.2 198.961 228.854 315.772 278.6 322.644C328.346 329.515 369.515 157.733 424.408 156.015C479.3 154.298 367.8 296.876 457 296.876" stroke="url(#paint0_linear_7365_114)" stroke-width="2"/>
<path d="M293.394 214.524C293.394 214.524 289.565 324.165 293.029 448.765C293.029 448.765 303.423 458.616 323.117 452.049C323.117 452.049 322.935 313.402 328.223 258.308C328.223 258.308 353.023 363.023 384.387 453.691C384.387 453.691 405.358 457.704 412.834 445.846C412.834 445.846 370.529 298.99 364.329 214.524H293.394Z" fill="url(#paint1_linear_7365_114)"/>
<path d="M293.395 214.524H364.329C364.876 220.909 365.423 227.659 366.335 234.592C324.03 234.774 301.6 224.011 293.212 219.085C293.212 215.984 293.395 214.524 293.395 214.524Z" fill="#402B2B" fill-opacity="0.45" style="mix-blend-mode:multiply"/>
<path d="M122.246 260.685C122.246 281.138 134.025 297.664 148.512 297.664H174.778C189.265 297.664 200.909 281.003 200.909 260.685C200.909 240.232 189.13 223.707 174.643 223.707C174.372 223.707 174.237 223.707 173.966 223.707H148.512C133.89 223.707 122.246 240.232 122.246 260.685Z" fill="#F48767"/>
<path d="M-85.3076 257.57L20.4336 257.3L8.24832 250.12L-71.7684 250.256L-85.3076 257.57Z" fill="#402B2B"/>
<path d="M-185.092 197.295L-184.956 265.156L-99.1178 265.02L-71.7686 250.256L8.24815 250.121L32.8895 264.75L207.545 264.343C210.389 264.343 212.69 262.041 212.69 259.196L212.555 196.482L-185.092 197.295Z" fill="#F36F49"/>
<path d="M2.02139 212.736L139.038 212.465L138.767 88.2562C138.767 83.2445 134.706 79.1809 129.561 79.1809L1.61523 79.4518L2.02139 212.736Z" fill="#F48767"/>
<path d="M-211.628 213.278L1.88565 212.872L1.6149 79.5875L-202.827 79.9939C-207.837 79.9939 -211.898 84.0574 -211.898 89.2045L-211.628 213.278Z" fill="#F06A5B"/>
<path d="M104.917 260.685C104.917 281.138 93.2737 297.664 78.7867 297.664H52.656V285.202C43.0432 285.202 35.1904 274.23 35.1904 260.685C35.1904 247.14 42.9078 236.169 52.5206 236.169V223.707H78.6513C93.1383 223.843 104.782 240.368 104.917 260.685Z" fill="#F48767"/>
<path d="M30.9951 260.957C30.9951 277.753 40.608 291.298 52.5225 291.162C64.437 291.162 73.9144 277.617 73.9144 260.821C73.9144 244.025 64.3016 230.48 52.3871 230.616C40.608 230.616 30.9951 244.161 30.9951 260.957Z" fill="#F48767"/>
<path d="M52.5209 280.867C60.3736 280.867 66.6017 271.928 66.6017 260.821C66.6017 249.714 60.2382 240.909 52.3855 240.909C44.5327 240.909 38.3047 249.849 38.3047 260.956C38.3047 272.063 44.6681 280.867 52.5209 280.867ZM52.5209 249.036C57.1242 249.036 60.9152 254.319 60.9152 260.821C60.9152 267.322 57.1242 272.74 52.5209 272.74C47.9175 272.74 44.1265 267.458 44.1265 260.956C44.1265 254.319 47.7821 249.036 52.5209 249.036Z" fill="#F7A58D"/>
<path d="M52.521 297.799C67.0079 297.799 78.6517 281.139 78.6517 260.821C78.6517 240.503 66.8726 223.843 52.3856 223.843C37.8986 223.843 26.2549 240.503 26.2549 260.821C26.2549 281.139 38.1694 297.934 52.521 297.799ZM52.3856 230.615C64.3001 230.615 73.9129 244.16 73.9129 260.821C73.9129 277.617 64.4355 291.162 52.521 291.162C40.6065 291.162 30.9936 277.617 30.9936 260.956C30.9936 244.16 40.6065 230.615 52.3856 230.615Z" fill="#F7A58D"/>
<path d="M48.8662 260.821C48.8662 257.976 50.4909 255.809 52.3864 255.809C54.2819 255.809 55.9066 258.112 56.042 260.821C56.042 263.665 54.4173 265.833 52.5218 265.833C50.4909 265.968 48.8662 263.665 48.8662 260.821Z" fill="#5B2929"/>
<path d="M229.749 159.504C229.749 160.046 230.155 160.452 230.561 160.588C231.644 160.858 235.706 160.858 236.924 160.452C237.466 160.317 238.007 159.91 238.007 159.233C238.414 148.397 238.414 137.832 238.007 127.808C238.007 127.131 237.466 126.725 236.924 126.589C235.57 126.183 230.832 125.912 229.342 126.454C228.801 126.589 228.395 127.131 228.395 127.673C228.124 137.967 228.53 148.532 229.749 159.504Z" fill="#F69276"/>
<path d="M223.116 169.121C223.251 169.121 223.386 169.121 223.657 168.985L232.864 164.38C235.03 163.296 236.384 161.129 236.384 158.691L236.249 124.693C236.249 123.338 235.166 122.254 233.812 122.254H208.493C207.816 122.254 207.41 122.796 207.41 123.338C207.41 124.015 207.952 124.422 208.493 124.422H233.812C233.947 124.422 233.947 124.557 233.947 124.557L234.082 158.555C234.082 160.181 233.135 161.535 231.781 162.213L222.574 166.818C222.032 167.089 221.762 167.766 222.032 168.308C222.303 168.985 222.709 169.121 223.116 169.121Z" fill="#F69276"/>
<path d="M20.4337 212.465C20.4337 212.465 23.9539 212.465 29.3696 212.465H50.897C67.0086 212.465 70.7996 220.456 80.6832 240.097L111.959 239.961C111.959 239.961 111.959 237.659 111.959 233.731L231.375 233.46C231.916 223.572 232.999 203.525 232.999 184.562C232.999 183.884 232.999 183.343 232.999 182.665C232.999 177.247 232.052 171.288 230.427 165.328C224.063 142.03 207.952 117.242 201.318 108.167C199.151 105.187 197.256 102.614 195.631 100.311C191.028 94.2158 187.914 91.1004 182.092 91.1004L37.3578 91.5067C34.3791 91.5067 31.6713 93.5385 30.859 96.383C18.4029 142.166 20.2984 176.976 20.4337 212.465ZM142.422 107.625C142.287 106.948 142.828 106.406 143.505 106.406L187.508 106.271C190.08 106.271 192.653 107.625 194.277 109.928C211.472 133.361 218.377 154.762 220.949 167.089L223.657 180.092C224.063 181.988 222.845 183.478 220.949 183.478H210.254C208.493 183.478 206.598 182.665 205.244 181.311L183.31 160.316C180.873 158.013 177.624 156.659 174.51 156.659H148.244L142.422 107.625Z" fill="#F36F49"/>
<path d="M119.675 165.735C120.623 170.069 121.706 174.539 122.653 179.28C123.33 182.531 126.174 184.833 129.423 184.969C172.207 186.459 207.68 186.594 232.998 184.698C232.998 184.021 232.998 183.479 232.998 182.802C232.998 177.383 232.05 171.424 230.426 165.464L119.675 165.735Z" fill="#F6977C"/>
<path d="M40.6058 106.542L84.6082 106.407C87.1807 106.407 89.4823 107.761 90.7009 110.064C103.022 133.497 105.594 154.898 105.594 167.224V180.228C105.594 182.124 104.105 183.614 102.209 183.614H91.5132C89.7531 183.614 87.993 182.801 86.9099 181.447L69.3089 160.452C67.278 158.149 64.4348 156.659 61.3208 156.795H35.0547L39.2519 107.761C39.2519 107.084 39.7934 106.542 40.6058 106.542Z" fill="#F36F49"/>
<path d="M20.4337 212.465C20.4337 212.465 23.9539 212.465 29.3696 212.465H50.897C67.0086 212.465 70.7996 220.456 80.6832 240.097L111.959 239.961C111.959 239.961 111.959 237.659 111.959 233.731L231.375 233.46C231.916 223.572 232.999 203.525 232.999 184.562C207.681 186.458 172.073 186.458 129.424 184.833C126.175 184.697 123.332 182.395 122.655 179.144C121.707 174.403 120.624 169.798 119.676 165.599C113.854 140.811 107.491 123.067 99.0966 103.833C98.4196 102.343 99.5027 100.582 101.127 100.582L195.631 100.311C191.028 94.2158 187.914 91.1004 182.092 91.1004L37.3578 91.5067C34.3791 91.5067 31.6713 93.5385 30.859 96.383C18.4029 142.166 20.2984 176.976 20.4337 212.465ZM34.9207 156.794L39.1178 107.761C39.1178 107.084 39.7948 106.542 40.4718 106.542L84.4742 106.406C87.0466 106.406 89.3483 107.761 90.5668 110.064C102.888 133.497 105.46 154.898 105.46 167.224V180.227C105.46 182.124 103.971 183.614 102.075 183.614H91.3792C89.6191 183.614 87.859 182.801 86.7759 181.446L69.1749 160.451C67.144 158.149 64.3008 156.659 61.1868 156.794H34.9207Z" fill="#F7A58D"/>
<path d="M25.7132 208.943C25.7132 210.975 27.338 212.465 29.3689 212.465H50.8962C67.0079 212.465 70.7988 220.457 80.6825 240.097L111.958 239.962C111.958 239.962 111.958 237.659 111.958 233.731L111.823 178.873C111.823 151.647 106.949 134.445 94.0863 107.219C92.1908 103.156 87.9937 100.582 83.5257 100.582L36.9508 100.718C35.8677 100.718 35.0553 101.395 34.7845 102.343C25.5779 137.29 25.5779 194.179 25.7132 208.943ZM34.9199 156.795L39.1171 107.761C39.1171 107.084 39.794 106.542 40.471 106.542L84.4734 106.407C87.0459 106.407 89.3475 107.761 90.5661 110.064C102.887 133.497 105.459 154.898 105.459 167.224V180.228C105.459 182.124 103.97 183.614 102.074 183.614H91.3784C89.6183 183.614 87.8583 182.801 86.7751 181.447L69.1741 160.452C67.1433 158.149 64.3 156.659 61.186 156.795H34.9199Z" fill="#F58A6B"/>
<path d="M40.8766 108.167L84.6082 108.032C86.5037 108.032 88.2638 109.116 89.2115 110.741C101.938 134.987 103.969 156.524 103.969 167.089V180.092C103.969 181.04 103.157 181.853 102.209 181.853H91.5132C90.1593 181.853 88.9408 181.311 88.1284 180.363L70.5274 159.368C68.2258 156.659 64.841 155.034 61.1854 155.034H36.8148L40.8766 108.167ZM40.6058 106.542C39.9288 106.542 39.2519 107.084 39.2519 107.761L35.0547 156.795H61.3208C64.4348 156.795 67.278 158.149 69.3089 160.452L86.9099 181.447C87.993 182.801 89.7531 183.614 91.5132 183.614H102.209C104.105 183.614 105.594 182.124 105.594 180.228V167.224C105.594 154.898 103.022 133.497 90.7009 110.064C89.4823 107.761 87.1807 106.407 84.6082 106.407L40.6058 106.542Z" fill="#F7A58D"/>
<path d="M111.824 207.859V233.731L159.076 233.595C158.535 226.823 157.316 220.321 155.285 214.226C154.473 211.788 152.442 210.027 149.869 209.62C139.444 208.401 126.176 207.859 111.824 207.859ZM207.411 233.595H230.834C231.24 227.906 231.646 218.696 232.052 208.266C226.366 208.537 221.086 209.078 216.347 209.756C213.775 210.162 211.744 211.923 210.931 214.361C209.036 220.321 207.953 226.823 207.411 233.595Z" fill="#F6977C"/>
<path d="M111.959 259.738L221.491 259.467C228.938 259.467 235.03 253.371 235.03 245.921V243.619C235.03 241.452 233.27 239.826 231.239 239.826L112.094 240.097L111.959 259.738Z" fill="#F6977C"/>
<path d="M91.7855 259.738H111.959V240.097H80.9541L84.3389 253.778C85.1513 257.299 88.2653 259.738 91.7855 259.738Z" fill="#F7A58D"/>
<path d="M43.5853 188.084C48.1887 188.22 57.1246 189.168 57.1246 192.419C57.1246 195.669 49.2718 196.753 42.9084 196.753C36.5449 196.753 35.8679 193.231 35.3264 191.741C34.9202 190.251 34.514 187.949 43.5853 188.084Z" fill="#F6977C"/>
<path d="M43.9915 191.606C41.8252 191.606 39.5236 190.928 38.4404 189.845C39.2528 189.438 40.4713 189.032 42.3668 189.032C45.887 189.032 51.5735 189.438 54.5521 190.793C54.1459 191.064 53.0627 191.606 51.3027 191.606C49.1364 191.606 46.2932 191.606 43.9915 191.606Z" fill="#F47B58"/>
<path d="M53.0633 194.179C53.8757 194.179 54.2819 194.315 54.4173 194.45C51.9802 195.534 47.5122 195.94 45.3459 195.94C42.2319 195.94 40.0656 195.94 39.3887 195.263C39.9302 194.857 41.1488 194.179 42.3673 194.179C43.992 194.315 51.9802 194.179 53.0633 194.179Z" fill="#F47B58"/>
<path d="M111.959 233.866C111.959 237.794 111.959 240.097 111.959 240.097L230.969 239.826C230.969 239.826 231.104 237.523 231.375 233.595L111.959 233.866Z" fill="#F58A6B"/>
<g opacity="0.2">
<path d="M163.273 206.505V232.376L203.214 232.24V206.369C203.214 203.254 200.371 200.816 196.851 200.816H169.501C166.117 200.951 163.273 203.525 163.273 206.505Z" fill="#F16036"/>
</g>
<path d="M216.617 231.428H225.012C227.178 231.428 229.073 229.667 229.073 227.364V223.166C229.073 220.998 227.313 219.102 225.012 219.102H216.617C214.451 219.102 212.556 220.863 212.556 223.166V227.364C212.556 229.667 214.451 231.428 216.617 231.428Z" fill="white"/>
<path d="M137.14 231.699H145.534C147.7 231.699 149.596 229.938 149.596 227.636V223.437C149.596 221.27 147.836 219.373 145.534 219.373H137.14C134.974 219.373 133.078 221.134 133.078 223.437V227.636C133.078 229.803 134.838 231.699 137.14 231.699Z" fill="white"/>
<path d="M82.9843 159.775C82.9843 160.317 83.3905 160.723 83.7967 160.859C89.077 161.4 94.6281 161.4 100.315 160.723C100.992 160.588 101.398 160.181 101.398 159.504C101.804 148.668 101.804 138.103 101.398 128.079C101.398 127.402 100.856 126.996 100.315 126.86C94.4927 126.183 88.6708 126.183 82.5781 126.86C82.0366 126.996 81.6304 127.538 81.6304 128.079C81.2242 138.238 81.7658 148.803 82.9843 159.775Z" fill="#F7A58D"/>
<path d="M103.969 169.392C104.375 169.392 104.781 169.121 104.917 168.715C105.187 168.173 104.917 167.496 104.375 167.225L95.1684 162.755C93.8145 162.078 92.8667 160.588 92.8667 159.098L92.7313 125.099C92.7313 124.964 92.8667 124.964 92.8667 124.964H98.5532C99.2302 124.964 99.6363 124.422 99.6363 123.88C99.6363 123.203 99.0948 122.797 98.5532 122.797H92.8667C91.5128 122.797 90.4297 123.88 90.4297 125.235L90.565 159.233C90.565 161.671 91.919 163.838 94.0852 164.922L103.292 169.392C103.698 169.392 103.834 169.392 103.969 169.392Z" fill="#F69276"/>
<path d="M166.065 261.341L204.381 261.258L204.356 249.745L166.04 249.828L166.065 261.341Z" fill="#F8B4A0"/>
<path opacity="0.6" d="M98.8358 104.243C107.23 123.477 113.458 141.221 119.415 166.008L230.166 165.737C223.803 142.44 207.691 117.652 201.057 108.577C198.891 105.597 196.995 103.024 195.37 100.721L100.867 100.992C99.242 101.127 98.1588 102.753 98.8358 104.243Z" fill="url(#paint2_linear_7365_114)"/>
<path d="M518.911 367.428H410.482V451.155H518.911V367.428Z" fill="#8C5E5E"/>
<path d="M447.327 367.428H437.151V379.013H447.327V367.428Z" fill="#A3774A"/>
<path d="M447.806 367.428H339.377V451.155H447.806V367.428Z" fill="#F7A58D"/>
<path d="M447.98 367.428H408.504V451.155H447.98V367.428Z" fill="#F58A6B"/>
<path d="M434.471 367.428H424.295V379.013H434.471V367.428Z" fill="white"/>
<path d="M376.22 367.428H366.044V379.013H376.22V367.428Z" fill="white"/>
<path d="M475.458 286.154H367.029V369.881H475.458V286.154Z" fill="#F7A58D"/>
<path d="M475.633 286.154H436.156V369.881H475.633V286.154Z" fill="#F58A6B"/>
<path d="M462.124 286.154H451.947V297.739H462.124V286.154Z" fill="white"/>
<path d="M403.872 286.154H393.696V297.739H403.872V286.154Z" fill="white"/>
</g>
<path d="M300.506 30.8168H318.011L320.382 20.2358C320.382 20.2358 313.453 24.2493 311.811 21.5129C310.17 18.7764 310.535 19.871 308.894 20.2358C307.253 20.6007 307.253 18.4115 305.247 19.6885C303.058 21.148 299.776 28.0803 300.506 30.8168Z" fill="#6B1912"/>
<path d="M262.012 168.23L279.338 142.039L304.32 149.292C303.353 157.028 287.262 180.184 279.338 190.794L262.012 168.23Z" fill="url(#paint3_linear_7365_114)"/>
<path d="M264.43 158.754C272.936 120.06 289.658 93.5427 289.658 93.5427C299.071 95.6087 302.523 128.522 302.523 128.522C300.527 140.016 294.47 169.891 289.658 180.915L264.43 158.754Z" fill="url(#paint4_linear_7365_114)"/>
<path d="M289.564 93.1135C289.564 93.1135 290.476 114.093 293.211 214.977C293.211 214.977 318.011 227.565 367.428 218.808C367.428 218.808 367.61 188.525 374.357 161.708C374.357 161.708 386.939 111.174 380.557 96.3973C380.557 96.3973 340.258 71.4043 289.564 93.1135Z" fill="url(#paint5_linear_7365_114)"/>
<path d="M327.858 73.1188L327.493 86.1812C327.493 86.1812 330.593 90.7419 338.069 91.2892C345.545 91.654 349.192 87.4581 349.192 87.4581L349.922 68.0107C340.622 72.0242 331.505 73.6661 327.858 73.1188Z" fill="url(#paint6_linear_7365_114)"/>
<path d="M328.587 67.7556L327.858 82.1676C331.505 82.7149 340.623 81.073 349.74 77.0595L350.287 67.7556H328.587Z" fill="url(#paint7_linear_7365_114)" style="mix-blend-mode:multiply"/>
<path d="M378.004 124.856C378.004 124.856 367.246 149.12 363.416 160.066C359.587 170.829 359.587 213.7 339.528 221.909C339.528 221.909 360.863 220.632 367.61 218.808C367.61 218.808 367.975 186.518 374.54 161.707C374.54 161.707 379.098 135.62 380.922 123.762L378.004 124.856Z" fill="#EE4D47" fill-opacity="0.29" style="mix-blend-mode:multiply"/>
<path d="M363.78 36.0128C363.416 36.1952 363.051 42.033 363.051 42.033L361.592 54.2558L354.845 59.5463L351.016 61.1881C351.016 61.1881 345.363 58.8165 346.092 56.6274C346.822 54.6206 350.469 25.7967 351.198 25.7967C351.927 25.7967 357.763 29.9926 357.763 29.9926L363.78 36.0128Z" fill="#402B2B"/>
<path d="M310.351 25.0667C308.71 25.0667 311.263 45.1341 311.263 45.1341L314.181 37.1072L316.187 27.4383L310.351 25.0667Z" fill="#402B2B"/>
<path d="M313.088 29.0804L309.988 54.8031C309.988 54.8031 308.894 76.5123 326.764 77.7893C344.635 78.8839 356.852 61.1882 356.852 61.1882C356.852 61.1882 359.041 63.7422 361.411 59.3638C363.599 54.9855 362.14 49.1477 359.041 48.6005C355.758 48.2356 354.299 50.0599 353.935 52.7963C353.57 55.5328 353.205 57.5395 353.205 57.5395L350.47 57.1747L352.476 36.0128C352.476 36.0128 348.282 27.8034 343.541 26.1615C338.8 24.5196 334.606 31.0871 334.606 31.0871C334.606 31.0871 330.229 31.9993 326.035 31.0871C321.841 30.175 319.106 29.0804 319.106 29.0804C319.106 29.0804 316.553 29.8101 313.088 29.0804Z" fill="url(#paint8_linear_7365_114)"/>
<path d="M326.035 67.9381C332.052 68.303 332.964 61.3706 332.964 61.3706C332.964 61.3706 319.105 59.7288 318.741 59.5463C318.741 59.5463 317.647 67.3908 326.035 67.9381Z" fill="#893D43"/>
<path d="M332.417 63.5598C332.964 62.2828 333.146 61.3706 333.146 61.3706C333.146 61.3706 319.288 59.7288 318.923 59.5463C318.923 59.5463 318.741 60.4584 318.923 61.9179L332.417 63.5598Z" fill="#FFFEFF"/>
<path d="M331.868 22.5127V3.90472C342.992 4.45202 354.48 6.64116 360.133 13.5735C366.88 21.7829 363.05 40.7557 363.05 40.7557C363.05 40.7557 354.845 39.8436 353.386 37.1071C351.927 34.3707 338.068 30.5396 327.492 31.0869C316.916 31.6342 311.81 30.5396 306.522 25.9788C305.428 25.0667 304.516 23.7897 303.786 22.3302H331.868V22.5127Z" fill="#402B2B"/>
<path d="M364.328 33.8235C364.328 33.8235 356.487 31.2695 343.358 30.1749C321.294 20.8709 311.811 22.5128 311.811 22.5128C311.811 22.5128 311.994 15.398 313.999 10.4724C316.005 5.54675 329.499 -1.38561 340.805 -0.291023C352.111 0.803561 363.781 9.19533 365.605 17.2223C367.064 23.4249 364.328 33.8235 364.328 33.8235Z" fill="url(#paint9_linear_7365_114)"/>
<path d="M351.018 31.087C348.647 19.7763 331.688 14.121 319.653 14.3034C307.8 14.4858 299.412 24.3371 298.136 31.087C297.589 33.8235 299.777 34.1883 300.506 31.8167C301.053 30.1748 302.147 22.3304 313.089 23.2425C324.03 24.1547 323.483 34.0059 328.953 34.9181C334.059 35.8302 339.894 32.1816 351.018 31.087Z" fill="url(#paint10_linear_7365_114)"/>
<path d="M314.364 33.6409V32.3639C314.911 32.3639 319.105 31.8166 324.211 32.9112L324.029 34.9179C319.835 33.6409 314.364 33.6409 314.364 33.6409Z" fill="#402B2B"/>
<path d="M345.181 38.2018C341.898 36.3775 335.699 35.4653 335.699 35.2829L336.428 33.4585C336.61 33.4585 342.263 34.5531 345.91 36.9248L345.181 38.2018Z" fill="#402B2B"/>
<path d="M326.947 44.4045C326.947 44.4045 326.4 48.2356 324.941 49.3301C323.483 50.4247 320.93 51.3369 320.565 52.2491C320.2 52.9788 320.93 54.4382 322.571 54.9855C324.212 55.5328 324.394 56.0801 324.394 56.0801C324.394 56.0801 321.112 56.445 319.471 54.4382C317.83 52.4315 319.653 50.7896 321.294 49.8775C322.935 48.9653 323.665 48.6005 324.394 48.0532C325.306 47.5059 326.947 44.4045 326.947 44.4045Z" fill="#D87C60"/>
<path d="M334.788 46.4111C334.788 48.2354 336.064 49.8773 337.705 49.8773C339.347 49.8773 340.623 48.4178 340.623 46.4111C340.623 44.5868 339.347 42.9449 337.705 42.9449C336.064 42.9449 334.788 44.4043 334.788 46.4111Z" fill="#402B2B"/>
<path d="M314.729 44.0397C314.729 45.864 316.006 47.5058 317.647 47.5058C319.288 47.5058 320.564 46.0464 320.564 44.0397C320.564 42.2154 319.288 40.5735 317.647 40.5735C316.006 40.7559 314.729 42.2154 314.729 44.0397Z" fill="#402B2B"/>
<path d="M226.316 124.174C225.557 122.758 226.09 120.995 227.506 120.237C228.922 119.478 230.685 120.011 231.444 121.427L241.061 139.372L235.933 142.12L226.316 124.174Z" fill="white"/>
<path d="M228.172 127.554L233.254 124.83L244.245 145.34L239.163 148.064L228.172 127.554Z" fill="#822626"/>
<path d="M302.709 179.706C300.453 175.193 300.963 171.648 301.5 170.439C303.784 171.782 308.512 175.193 309.156 178.095C309.801 180.996 308.35 184.676 307.544 186.153C306.873 185.885 304.966 184.219 302.709 179.706Z" fill="url(#paint11_linear_7365_114)"/>
<path d="M205.909 148.229C204.965 145.026 207.366 141.816 210.705 141.816H272.003C274.22 141.816 276.172 143.276 276.799 145.403L299.626 222.884C300.57 226.087 298.169 229.297 294.83 229.297H233.532C231.315 229.297 229.363 227.837 228.736 225.71L205.909 148.229Z" fill="white"/>
<path d="M204.66 144.278C203.821 141.106 206.213 138 209.494 138H270.873C273.142 138 275.127 139.528 275.707 141.722L298.836 229.203C299.675 232.375 297.283 235.481 294.002 235.481H232.623C230.354 235.481 228.369 233.953 227.789 231.759L204.66 144.278Z" fill="url(#paint12_linear_7365_114)"/>
<path fill-rule="evenodd" clip-rule="evenodd" d="M368.341 177.944C381.653 158.606 383.477 100.046 383.477 100.046C371.228 101.639 365.378 113.764 361.62 121.552C359.783 125.359 358.446 128.13 357.106 128.13L351.465 163.992L295.054 174.065C295.007 174.13 294.961 174.195 294.915 174.259C292.138 174.331 282.493 174.875 276.194 178.886C276.194 178.886 272.932 181.332 274.807 183.046C275.704 184.025 275.418 185.086 275.132 186.146C274.847 187.206 274.561 188.267 275.458 189.246C276.214 190.073 276.333 190.927 276.449 191.769C276.608 192.922 276.764 194.048 278.556 195.04C278.556 195.04 278.229 197.65 280.594 198.712C280.701 198.76 280.814 198.812 280.933 198.865C283.431 199.99 288.304 202.184 289.238 201.328C289.589 201.006 290.465 200.37 291.448 199.656C293.205 198.379 295.303 196.855 295.356 196.437C295.438 195.784 295.275 194.642 293.154 194.478C293.154 194.478 295.193 194.071 297.314 192.604C299.517 191.3 301.883 187.875 301.883 187.875L304.028 182.974C356.294 187.429 368.341 177.944 368.341 177.944Z" fill="url(#paint13_linear_7365_114)"/>
<path d="M353.023 126.863L347.918 153.681L346.629 160.43L301.5 170.439C303.649 172.319 307.867 178.014 307.544 185.75C321.513 187.765 352.915 189.86 366.776 182.124C369.304 180.153 374.979 173.054 377.458 160.43C393.688 104.607 380.558 96.3973 380.558 96.3973C362.323 98.7689 353.023 126.863 353.023 126.863Z" fill="url(#paint14_linear_7365_114)"/>
<path d="M194.567 306.843C193.221 300.64 190.999 294.775 188.038 289.382C187.634 288.64 187.163 287.831 186.691 287.09C183.258 281.36 179.018 276.236 174.104 271.787C173.498 271.18 172.825 270.64 172.152 270.101C166.901 265.719 160.911 262.146 154.449 259.584C153.641 259.247 152.833 258.978 152.025 258.708C145.563 256.416 138.563 255.135 131.36 255C130.957 255 130.485 255 130.082 255C129.678 255 129.206 255 128.803 255C121.533 255.135 114.6 256.416 108.138 258.708C107.33 258.978 106.522 259.315 105.714 259.584C99.2523 262.146 93.2615 265.719 88.0111 270.101C87.338 270.64 86.6649 271.247 86.0591 271.787C81.1453 276.236 76.8372 281.36 73.4716 287.09C73.0004 287.831 72.5965 288.64 72.1254 289.382C69.1636 294.775 66.9423 300.64 65.5961 306.843C65.3941 307.719 65.2595 308.596 65.0575 309.472C64.3844 313.247 64.0479 317.09 64.0479 321H196.048C196.048 317.09 195.711 313.18 195.038 309.472C194.904 308.596 194.769 307.719 194.567 306.843Z" fill="#FCDDD4"/>
<path d="M276.154 340.411C274.471 332.705 271.694 325.418 267.992 318.717C267.487 317.796 266.898 316.791 266.309 315.869C262.018 308.75 256.717 302.384 250.575 296.856C249.818 296.102 248.976 295.432 248.135 294.762C241.572 289.318 234.083 284.878 226.006 281.696C224.996 281.277 223.987 280.942 222.977 280.607C214.899 277.759 206.149 276.168 197.146 276C196.641 276 196.052 276 195.547 276C195.042 276 194.453 276 193.948 276C184.861 276.168 176.195 277.759 168.117 280.607C167.107 280.942 166.098 281.361 165.088 281.696C157.011 284.878 149.522 289.318 142.959 294.762C142.118 295.432 141.276 296.186 140.519 296.856C134.377 302.384 128.992 308.75 124.785 315.869C124.196 316.791 123.691 317.796 123.102 318.717C119.4 325.418 116.623 332.705 114.94 340.411C114.688 341.499 114.519 342.588 114.267 343.677C113.426 348.368 113.005 353.142 113.005 358H278.005C278.005 353.142 277.584 348.284 276.743 343.677C276.574 342.588 276.406 341.499 276.154 340.411Z" fill="white"/>
<path d="M296.426 324.029C285.457 324.029 281.343 314.427 281.343 301.053C281.343 287.678 277.572 276.704 262.833 276.018C243.637 275.333 245.351 293.851 245.351 316.485C245.351 345.291 235.067 326.773 220.67 342.891C208.33 356.608 224.098 380.957 228.897 388.158H290.941C292.998 384.386 298.139 375.127 303.967 363.81C316.993 339.804 307.395 324.029 296.426 324.029Z" fill="#F37753"/>
<path opacity="0.2" fill-rule="evenodd" clip-rule="evenodd" d="M266.946 328.487H263.861V371.495L250.902 354.209L248.434 356.061L263.861 376.639V388.158H266.946V355.664L280.018 339.444L277.617 337.506L266.946 350.747V328.487Z" fill="white"/>
<rect x="216.053" y="388" width="90" height="50" fill="#FCDDD4"/>
</g>
<defs>
<linearGradient id="paint0_linear_7365_114" x1="234" y1="203.584" x2="234" y2="401.302" gradientUnits="userSpaceOnUse">
<stop stop-color="#F37753"/>
<stop offset="1" stop-color="white" stop-opacity="0"/>
</linearGradient>
<linearGradient id="paint1_linear_7365_114" x1="352.206" y1="146.694" x2="352.206" y2="454.345" gradientUnits="userSpaceOnUse">
<stop stop-color="#822626"/>
<stop offset="0.943497" stop-color="#402B2B"/>
</linearGradient>
<linearGradient id="paint2_linear_7365_114" x1="150.5" y1="80" x2="203.5" y2="207" gradientUnits="userSpaceOnUse">
<stop stop-color="#F7A58D"/>
<stop offset="0.926161" stop-color="white"/>
</linearGradient>
<linearGradient id="paint3_linear_7365_114" x1="281.852" y1="142.039" x2="281.852" y2="190.011" gradientUnits="userSpaceOnUse">
<stop stop-color="#FFB3B6"/>
<stop offset="1" stop-color="#FFC8C1"/>
</linearGradient>
<linearGradient id="paint4_linear_7365_114" x1="271.28" y1="187.765" x2="298.679" y2="102.342" gradientUnits="userSpaceOnUse">
<stop stop-color="#F4A984"/>
<stop offset="1" stop-color="#EE4D47"/>
</linearGradient>
<linearGradient id="paint5_linear_7365_114" x1="335.964" y1="31.8286" x2="335.964" y2="217.179" gradientUnits="userSpaceOnUse">
<stop stop-color="#F4A984"/>
<stop offset="1" stop-color="#EE4D47"/>
</linearGradient>
<linearGradient id="paint6_linear_7365_114" x1="346.18" y1="85.2404" x2="327.727" y2="93.199" gradientUnits="userSpaceOnUse">
<stop stop-color="#FFB3B6"/>
<stop offset="1" stop-color="#FFC8C1"/>
</linearGradient>
<linearGradient id="paint7_linear_7365_114" x1="346.545" y1="76.0869" x2="327.988" y2="83.9458" gradientUnits="userSpaceOnUse">
<stop stop-color="#FFB3B6" stop-opacity="0.31"/>
<stop offset="1" stop-color="#FFC8C1"/>
</linearGradient>
<linearGradient id="paint8_linear_7365_114" x1="307.612" y1="71.5432" x2="311.559" y2="36.2727" gradientUnits="userSpaceOnUse">
<stop stop-color="#FFB3B6"/>
<stop offset="1" stop-color="#FFC8C1"/>
</linearGradient>
<linearGradient id="paint9_linear_7365_114" x1="338.922" y1="-18.7876" x2="338.922" y2="34.2554" gradientUnits="userSpaceOnUse">
<stop stop-color="#F4A984"/>
<stop offset="1" stop-color="#EE4D47"/>
</linearGradient>
<linearGradient id="paint10_linear_7365_114" x1="340.309" y1="9.04683" x2="340.309" y2="64.1906" gradientUnits="userSpaceOnUse">
<stop stop-color="#F4A984"/>
<stop offset="1" stop-color="#EE4D47"/>
</linearGradient>
<linearGradient id="paint11_linear_7365_114" x1="308.753" y1="171.245" x2="289.977" y2="178.679" gradientUnits="userSpaceOnUse">
<stop stop-color="#F4A984"/>
<stop offset="1" stop-color="#EE4D47"/>
</linearGradient>
<linearGradient id="paint12_linear_7365_114" x1="300" y1="187" x2="122" y2="221" gradientUnits="userSpaceOnUse">
<stop stop-color="#F58A6B"/>
<stop offset="1" stop-color="#F7A58D"/>
</linearGradient>
<linearGradient id="paint13_linear_7365_114" x1="365.518" y1="150.845" x2="270.985" y2="182.356" gradientUnits="userSpaceOnUse">
<stop stop-color="#FFB3B6"/>
<stop offset="1" stop-color="#FFC8C1"/>
</linearGradient>
<linearGradient id="paint14_linear_7365_114" x1="332.929" y1="137.398" x2="388.004" y2="174.557" gradientUnits="userSpaceOnUse">
<stop stop-color="#F4A984"/>
<stop offset="1" stop-color="#EE4D47"/>
</linearGradient>
<clipPath id="clip0_7365_114">
<rect width="478" height="438" fill="white"/>
</clipPath>
</defs>
</svg>
