<svg width="212" height="50" viewBox="0 0 212 50" fill="none" xmlns="http://www.w3.org/2000/svg">
<path d="M79.9916 41V40.68L81.3036 40.36C82.1783 40.168 82.6156 39.6346 82.6156 38.76V20.52H79.8956C79.1063 20.52 78.541 20.7333 78.1996 21.16C77.8583 21.5653 77.4956 22.1306 77.1116 22.856L75.9596 25.096H75.6396L75.7996 19.88H94.2637L94.3916 25.096H94.0716L92.9196 22.856C92.557 22.1306 92.205 21.5653 91.8636 21.16C91.5223 20.7333 90.957 20.52 90.1676 20.52H87.4476V38.76C87.4476 39.6346 87.885 40.168 88.7596 40.36L90.0716 40.68V41H79.9916Z" fill="white"/>
<path d="M95.7661 41V40.68L96.4381 40.456C96.8648 40.3066 97.1421 40.1146 97.2701 39.88C97.3981 39.624 97.4621 39.272 97.4621 38.824V22.088C97.4621 21.6613 97.3981 21.3306 97.2701 21.096C97.1635 20.84 96.9075 20.6373 96.5021 20.488L95.7661 20.2V19.88H104.918C107.435 19.88 109.366 20.36 110.71 21.32C112.054 22.2586 112.726 23.5706 112.726 25.256C112.726 26.1946 112.374 27.1333 111.67 28.072C110.966 29.0106 109.857 29.736 108.342 30.248L112.79 39.08C112.982 39.4426 113.195 39.7413 113.43 39.976C113.686 40.1893 114.017 40.3813 114.422 40.552L114.838 40.712V41H109.11L104.374 30.92H102.198V38.824C102.198 39.2293 102.262 39.56 102.39 39.816C102.518 40.072 102.785 40.264 103.19 40.392L103.958 40.68V41H95.7661ZM102.198 30.28H103.734C105.27 30.28 106.379 29.8746 107.062 29.064C107.745 28.232 108.086 27.0053 108.086 25.384C108.086 23.7413 107.766 22.5253 107.126 21.736C106.486 20.9253 105.409 20.52 103.894 20.52H102.198V30.28Z" fill="white"/>
<path d="M115.724 41V40.68L116.524 40.392C116.951 40.2213 117.282 40.0186 117.516 39.784C117.751 39.528 117.943 39.176 118.092 38.728L124.684 19.816H127.404L133.9 38.856C134.071 39.3253 134.263 39.688 134.476 39.944C134.69 40.1786 135.02 40.3813 135.468 40.552L135.852 40.68V41H127.724V40.68L128.204 40.52C128.652 40.3493 128.919 40.1146 129.004 39.816C129.111 39.496 129.1 39.1226 128.972 38.696L127.468 34.088H120.364L118.828 38.6C118.679 39.0693 118.626 39.4426 118.668 39.72C118.732 39.9973 118.988 40.2213 119.436 40.392L120.14 40.68V41H115.724ZM120.588 33.448H127.276L124.044 23.496L120.588 33.448Z" fill="white"/>
<path d="M136.86 41V40.68L137.436 40.488C137.863 40.3386 138.151 40.136 138.3 39.88C138.449 39.624 138.524 39.2826 138.524 38.856C138.545 37.576 138.556 36.2853 138.556 34.984C138.556 33.6826 138.556 32.3813 138.556 31.08V29.8C138.556 28.52 138.556 27.24 138.556 25.96C138.556 24.6586 138.545 23.368 138.524 22.088C138.524 21.6613 138.46 21.32 138.332 21.064C138.225 20.808 137.969 20.6053 137.564 20.456L136.86 20.2V19.88H152.348L152.572 25.192H152.252L150.428 21.832C150.215 21.4266 149.969 21.1066 149.692 20.872C149.415 20.6373 149.031 20.52 148.54 20.52H143.388C143.367 22.0346 143.356 23.5813 143.356 25.16C143.356 26.7386 143.356 28.3066 143.356 29.864H146.684C147.175 29.864 147.537 29.7573 147.772 29.544C148.007 29.3306 148.231 29.0213 148.444 28.616L149.116 27.4H149.436V33H149.116L148.412 31.784C148.199 31.4 147.975 31.0906 147.74 30.856C147.527 30.6213 147.175 30.504 146.684 30.504H143.356C143.356 31.9973 143.356 33.4266 143.356 34.792C143.356 36.136 143.367 37.4586 143.388 38.76C143.388 39.592 143.793 40.136 144.604 40.392L145.564 40.68V41H136.86Z" fill="white"/>
<path d="M153.86 41V40.68L154.5 40.424C154.927 40.2746 155.204 40.072 155.332 39.816C155.481 39.56 155.556 39.2186 155.556 38.792V22.088C155.556 21.6613 155.492 21.32 155.364 21.064C155.236 20.808 154.948 20.6053 154.5 20.456L153.86 20.2V19.88H162.084V20.2L161.444 20.456C161.017 20.6053 160.729 20.808 160.58 21.064C160.452 21.32 160.388 21.6613 160.388 22.088V38.792C160.388 39.2186 160.452 39.56 160.58 39.816C160.729 40.0506 161.017 40.2533 161.444 40.424L162.084 40.68V41H153.86Z" fill="white"/>
<path d="M173.962 41.576C171.892 41.576 170.015 41.16 168.33 40.328C166.666 39.4746 165.343 38.216 164.362 36.552C163.38 34.888 162.89 32.8506 162.89 30.44C162.89 28.6053 163.188 26.9946 163.786 25.608C164.383 24.2213 165.194 23.0586 166.218 22.12C167.263 21.1813 168.458 20.4773 169.802 20.008C171.167 19.5386 172.607 19.304 174.122 19.304C175.338 19.304 176.458 19.4426 177.482 19.72C178.506 19.9973 179.466 20.3813 180.362 20.872L180.49 24.808H180.17L178.57 22.248C178.356 21.8426 178.122 21.48 177.866 21.16C177.61 20.8186 177.29 20.5626 176.906 20.392C176.586 20.2426 176.266 20.136 175.946 20.072C175.647 19.9866 175.263 19.944 174.794 19.944C173.556 19.944 172.426 20.2746 171.402 20.936C170.399 21.5973 169.588 22.696 168.97 24.232C168.372 25.7466 168.074 27.8266 168.074 30.472C168.074 33.096 168.362 35.176 168.938 36.712C169.514 38.2266 170.292 39.3146 171.274 39.976C172.276 40.616 173.396 40.936 174.634 40.936C175.316 40.936 175.86 40.8933 176.266 40.808C176.671 40.7013 177.076 40.552 177.482 40.36C177.887 40.1893 178.196 39.944 178.41 39.624C178.623 39.2826 178.815 38.92 178.986 38.536L180.394 35.4H180.714L180.618 39.976C179.722 40.4453 178.719 40.8293 177.61 41.128C176.5 41.4266 175.284 41.576 173.962 41.576Z" fill="white"/>
<path d="M192.063 41.576C190.762 41.576 189.503 41.3413 188.287 40.872C187.093 40.4026 186.015 39.7093 185.055 38.792C184.117 37.8533 183.37 36.6906 182.815 35.304C182.261 33.9173 181.983 32.296 181.983 30.44C181.983 28.6053 182.261 26.9946 182.815 25.608C183.37 24.2213 184.127 23.0693 185.087 22.152C186.047 21.2133 187.125 20.5093 188.319 20.04C189.535 19.5493 190.783 19.304 192.063 19.304C193.365 19.304 194.613 19.5386 195.807 20.008C197.023 20.456 198.101 21.1493 199.039 22.088C199.999 23.0053 200.757 24.168 201.311 25.576C201.866 26.9626 202.143 28.584 202.143 30.44C202.143 32.2533 201.866 33.864 201.311 35.272C200.757 36.6586 199.999 37.8213 199.039 38.76C198.101 39.6773 197.023 40.3813 195.807 40.872C194.613 41.3413 193.365 41.576 192.063 41.576ZM192.063 40.904C193.237 40.904 194.186 40.5946 194.911 39.976C195.637 39.336 196.159 38.2586 196.479 36.744C196.821 35.208 196.991 33.1066 196.991 30.44C196.991 27.752 196.821 25.6506 196.479 24.136C196.159 22.6 195.637 21.5226 194.911 20.904C194.186 20.264 193.237 19.944 192.063 19.944C190.911 19.944 189.973 20.264 189.247 20.904C188.522 21.5226 187.989 22.6 187.647 24.136C187.327 25.6506 187.167 27.752 187.167 30.44C187.167 33.1066 187.327 35.208 187.647 36.744C187.989 38.2586 188.522 39.336 189.247 39.976C189.973 40.5946 190.911 40.904 192.063 40.904Z" fill="white"/>
<path d="M206.487 41.48C205.719 41.48 205.068 41.2133 204.535 40.68C204.002 40.1466 203.735 39.5066 203.735 38.76C203.735 38.0133 204.002 37.3626 204.535 36.808C205.068 36.2533 205.719 35.976 206.487 35.976C207.255 35.976 207.906 36.2533 208.439 36.808C208.972 37.3626 209.239 38.0133 209.239 38.76C209.239 39.5066 208.972 40.1466 208.439 40.68C207.906 41.2133 207.255 41.48 206.487 41.48Z" fill="white"/>
<path opacity="0.4" d="M-1.90735e-06 17L16 17L16 1.90735e-06L-1.90735e-06 17Z" fill="white"/>
<path d="M47 17H16V50L47 17Z" fill="white"/>
</svg>
