<svg width="487" height="407" viewBox="0 0 487 407" fill="none" xmlns="http://www.w3.org/2000/svg">
<g clip-path="url(#clip0_7370_115)">
<path d="M209 21.0515C125.128 -36.219 -8.32642 28.6873 0.999649 165.234C16.902 398.052 179.136 425.096 320.999 398.052C506.635 362.664 549.464 150.297 378.054 165.234C240.493 177.221 313.84 92.6395 209 21.0515Z" fill="#FCDDD4"/>
<mask id="mask0_7370_115" style="mask-type:alpha" maskUnits="userSpaceOnUse" x="0" y="0" width="487" height="407">
<path d="M208.999 21.0516C125.127 -36.2188 -8.3274 28.6874 0.998672 165.234C16.901 398.052 179.135 425.096 320.998 398.052C506.634 362.664 549.463 150.298 378.053 165.234C240.492 177.221 313.839 92.6396 208.999 21.0516Z" fill="#FCDDD4"/>
</mask>
<g mask="url(#mask0_7370_115)">
<path opacity="0.7" d="M-23.9285 36.1379C3.70239 24.0064 68.8793 6.52462 108.539 33.6494C158.115 67.5555 4.7505 111.389 51.947 137.186C99.1436 162.983 187.336 54.5911 221.422 73.2225C255.509 91.8539 134.69 141.561 169.844 167.585C204.998 193.608 308.099 79.7477 350.768 101.368C393.436 122.988 248.763 185.189 316.935 222.452" stroke="url(#paint0_linear_7370_115)" stroke-width="2"/>
<path d="M146 425.051C146 397.437 168.386 375.051 196 375.051L463 375.051L463 485.051L146 485.051L146 425.051Z" fill="#F58A6B"/>
</g>
<path fill-rule="evenodd" clip-rule="evenodd" d="M33.367 179.676C35.0038 181.023 36.2836 182.466 37.2933 183.854L39.9248 180.343C38.677 179.019 37.461 177.814 36.007 176.673L33.367 179.676Z" fill="#3E1A0B"/>
<path fill-rule="evenodd" clip-rule="evenodd" d="M41.9001 185.808C40.4205 183.143 37.1171 182.243 34.4834 183.841L30.9931 186.052C28.3594 187.651 27.522 191.192 28.8826 193.889C30.3621 196.554 33.6655 197.454 36.2992 195.856L39.7895 193.645C42.4232 192.046 43.4115 188.592 41.9001 185.808Z" fill="#F69E9F"/>
<path fill-rule="evenodd" clip-rule="evenodd" d="M183.099 74.245L121.271 84.4338L117.978 64.5241C117.65 62.826 116.045 61.5978 114.196 61.8382L65.1859 69.868C63.4875 70.1955 62.2589 71.8003 62.4992 73.6493L65.7926 93.559L7.51254 103.18C6.05219 103.444 4.91074 104.897 5.17438 106.358L45.0656 349.512C45.3292 350.972 46.7833 352.113 48.2436 351.849L223.862 323.033C225.322 322.77 226.464 321.316 226.2 319.856L186.19 76.7334C186.132 75.0905 184.591 74.1003 183.099 74.245Z" fill="url(#paint1_linear_7370_115)"/>
<path fill-rule="evenodd" clip-rule="evenodd" d="M174.519 105.048L20.1873 130.456C18.846 130.688 17.9107 131.959 18.1425 133.3L52.7013 343.697C52.933 345.038 54.2042 345.973 55.5455 345.741L209.877 320.333C211.218 320.101 212.154 318.83 211.922 317.489L177.363 107.092C177.131 105.751 175.86 104.816 174.519 105.048Z" fill="#F36F49"/>
<path fill-rule="evenodd" clip-rule="evenodd" d="M174.044 97.591L23.4662 122.248C22.1248 122.48 21.3086 123.719 21.5404 125.06L55.2678 330.45C55.4995 331.791 56.7389 332.607 58.0802 332.376L208.745 307.567C210.086 307.335 210.902 306.096 210.671 304.755L176.943 99.3652C176.624 98.1751 175.385 97.3591 174.044 97.591Z" fill="#FAFBFC"/>
<path opacity="0.8" d="M168.514 106.472L31.532 129.017C30.7858 129.089 30.1354 129.518 29.7868 130.122C29.4382 130.726 29.2405 131.416 29.3128 132.162L60.4421 321.666C60.5144 322.412 60.9438 323.062 61.5475 323.411C62.1512 323.759 62.8421 323.957 63.5882 323.884L200.602 301.458C201.348 301.386 201.998 300.956 202.347 300.353C202.695 299.749 202.893 299.058 202.821 298.312L171.66 108.69C171.587 107.944 171.158 107.294 170.554 106.945C169.951 106.597 169.26 106.399 168.514 106.472ZM201.718 298.48C201.845 298.957 201.703 299.377 201.409 299.711C201.116 300.045 200.791 300.26 200.315 300.387L63.4521 322.9C62.976 323.028 62.5551 322.885 62.2213 322.592C61.8876 322.299 61.6729 321.974 61.5453 321.498L30.3842 131.875C30.2566 131.399 30.399 130.978 30.6924 130.645C30.9857 130.311 31.3109 130.096 31.7871 129.969L168.769 107.424C169.245 107.296 169.666 107.438 170 107.732C170.333 108.025 170.548 108.35 170.676 108.826L201.718 298.48Z" fill="#F58A6B"/>
<path fill-rule="evenodd" clip-rule="evenodd" d="M90.4714 71.3842C87.5507 71.9117 85.5931 74.6047 86.1203 77.5249C86.6476 80.445 89.341 82.4021 92.2617 81.8746C95.1824 81.3471 97.14 78.654 96.6128 75.7339C96.1174 72.9328 93.3921 70.8567 90.4714 71.3842Z" fill="#FAFBFC"/>
<path fill-rule="evenodd" clip-rule="evenodd" d="M131.594 79.627L54.5906 92.2237C52.8922 92.5512 51.6636 94.156 51.9039 96.005L55.4928 117.494C55.8203 119.192 57.4252 120.42 59.2746 120.18L136.278 107.583C137.976 107.256 139.205 105.651 138.964 103.802L135.463 82.162C135.016 80.4958 133.292 79.2995 131.594 79.627Z" fill="#F58A6B"/>
<path opacity="0.8" fill-rule="evenodd" clip-rule="evenodd" d="M90.1513 89.7113L60.8168 94.51C59.4755 94.7418 58.5402 96.0129 58.772 97.354L61.5615 113.955C61.7932 115.296 63.0644 116.231 64.4057 115.999L93.7403 111.2C95.0816 110.968 96.0168 109.697 95.7851 108.356L92.9956 91.7555C92.7638 90.4144 91.4926 89.4794 90.1513 89.7113Z" fill="#F36F49"/>
<path opacity="0.2" d="M86.0607 144.02L86.4004 146.086L167.024 132.833L166.684 130.767L86.0607 144.02Z" fill="#EE4D47"/>
<path opacity="0.2" d="M86.9103 149.251L87.25 151.318L167.873 138.064L167.533 135.998L86.9103 149.251Z" fill="#EE4D47"/>
<path opacity="0.2" d="M127.971 147.704L128.311 149.771L168.683 143.134L168.343 141.067L127.971 147.704Z" fill="#EE4D47"/>
<path opacity="0.2" d="M87.757 154.342L88.0967 156.409L125.915 150.192L125.576 148.125L87.757 154.342Z" fill="#EE4D47"/>
<path opacity="0.2" d="M91.6213 178.205L91.9609 180.272L172.584 167.019L172.244 164.952L91.6213 178.205Z" fill="#EE4D47"/>
<path opacity="0.2" d="M92.4709 183.437L92.8105 185.504L173.434 172.25L173.094 170.183L92.4709 183.437Z" fill="#EE4D47"/>
<path opacity="0.2" d="M133.655 181.87L133.995 183.937L174.367 177.3L174.028 175.233L133.655 181.87Z" fill="#EE4D47"/>
<path opacity="0.2" d="M93.3195 188.528L93.6592 190.594L131.478 184.378L131.138 182.311L93.3195 188.528Z" fill="#EE4D47"/>
<path opacity="0.2" d="M96.6779 208.865L97.0176 210.932L177.641 197.678L177.301 195.612L96.6779 208.865Z" fill="#EE4D47"/>
<path opacity="0.2" d="M97.5275 214.096L97.8672 216.163L178.49 202.91L178.151 200.843L97.5275 214.096Z" fill="#EE4D47"/>
<path opacity="0.2" d="M138.711 212.529L139.051 214.596L179.423 207.959L179.083 205.893L138.711 212.529Z" fill="#EE4D47"/>
<path opacity="0.2" d="M98.3742 219.188L98.7139 221.255L136.533 215.038L136.193 212.971L98.3742 219.188Z" fill="#EE4D47"/>
<path opacity="0.2" d="M101.848 240.445L102.188 242.512L182.811 229.259L182.471 227.192L101.848 240.445Z" fill="#EE4D47"/>
<path opacity="0.2" d="M102.719 245.798L103.059 247.865L183.682 234.612L183.342 232.545L102.719 245.798Z" fill="#EE4D47"/>
<path opacity="0.2" d="M143.901 244.231L144.24 246.298L184.613 239.662L184.273 237.595L143.901 244.231Z" fill="#EE4D47"/>
<path opacity="0.2" d="M103.565 250.89L103.904 252.957L141.723 246.74L141.383 244.673L103.565 250.89Z" fill="#EE4D47"/>
<path opacity="0.2" d="M106.939 271.822L107.278 273.889L187.901 260.636L187.562 258.569L106.939 271.822Z" fill="#EE4D47"/>
<path opacity="0.2" d="M107.788 277.054L108.128 279.121L188.751 265.867L188.411 263.8L107.788 277.054Z" fill="#EE4D47"/>
<path opacity="0.2" d="M148.972 275.486L149.312 277.553L189.684 270.917L189.344 268.85L148.972 275.486Z" fill="#EE4D47"/>
<path opacity="0.2" d="M108.758 282.126L109.098 284.192L146.916 277.976L146.577 275.909L108.758 282.126Z" fill="#EE4D47"/>
<path opacity="0.2" d="M48.0205 144.37L47.0363 144.506L47.1724 145.49L50.2022 163.94L50.3383 164.924L51.3225 164.788L71.1169 161.525L72.1011 161.388L71.965 160.404L68.9353 141.955L68.7992 140.971L67.815 141.107L48.0205 144.37ZM69.8925 159.812L51.9155 162.715L49.126 146.115L66.9839 143.243L69.8925 159.812Z" fill="#EE4D47"/>
<path opacity="0.2" d="M53.6574 179.214L52.6732 179.35L52.9283 180.302L55.9581 198.752L56.0942 199.736L57.0783 199.6L76.8728 196.337L77.857 196.201L77.7209 195.217L74.6911 176.767L74.555 175.783L73.5708 175.919L53.6574 179.214ZM75.5293 194.656L57.6713 197.527L54.8818 180.927L72.7398 178.055L75.5293 194.656Z" fill="#EE4D47"/>
<path opacity="0.2" d="M59.1494 212.566L58.1652 212.702L58.3013 213.686L61.3311 232.136L61.4672 233.12L62.4514 232.984L82.2458 229.721L83.23 229.584L83.0939 228.6L80.0641 210.151L79.9281 209.167L78.9439 209.303L59.1494 212.566ZM81.0214 228.008L63.1634 230.879L60.3739 214.279L78.2318 211.407L81.0214 228.008Z" fill="#EE4D47"/>
<path opacity="0.2" d="M64.7051 246.156L63.7209 246.292L63.857 247.276L66.9187 265.845L67.0548 266.829L68.039 266.693L87.8334 263.43L88.8176 263.294L88.6815 262.31L85.6517 243.86L85.5156 242.876L84.5314 243.012L64.7051 246.156ZM86.577 261.598L68.7191 264.47L65.9296 247.869L83.7875 244.998L86.577 261.598Z" fill="#EE4D47"/>
<path opacity="0.2" d="M70.0616 278.524L69.0774 278.661L69.2134 279.645L72.2432 298.094L72.3793 299.078L73.3635 298.942L93.158 295.679L94.1422 295.543L94.0061 294.559L90.9763 276.109L90.8402 275.125L89.856 275.261L70.0616 278.524ZM91.9016 293.847L74.0437 296.719L71.2541 280.118L89.1121 277.247L91.9016 293.847Z" fill="#EE4D47"/>
<path d="M60.3355 153.188L50.0086 147.026L48.8438 148.869L60.1953 155.522L61.1008 156.045L61.6237 155.139L75.593 132.517L73.7819 131.472L60.3355 153.188Z" fill="#EE4D47"/>
<path d="M66.2277 188.984L55.9008 182.822L54.736 184.665L66.0875 191.318L66.9612 191.722L67.516 190.935L81.4534 168.194L79.6423 167.149L66.2277 188.984Z" fill="#F58A6B"/>
<path d="M77.507 257.268L67.0611 251.138L66.0153 252.949L77.2478 259.634L78.1534 260.156L78.6762 259.251L92.7646 236.597L90.9216 235.433L77.507 257.268Z" fill="#F58A6B"/>
<path fill-rule="evenodd" clip-rule="evenodd" d="M48.1058 363.239C47.0344 363.526 46.4244 364.582 46.7114 365.653C46.9984 366.725 48.0549 367.334 49.1263 367.047C50.1976 366.76 50.8076 365.704 50.5206 364.633C50.2336 363.562 49.1771 362.952 48.1058 363.239Z" fill="#FAFBFC"/>
<path d="M77.4957 354.838C78.2407 354.504 78.5734 353.629 78.2387 352.884C77.904 352.139 77.0286 351.806 76.2836 352.141C75.5385 352.476 75.2059 353.351 75.5406 354.096C75.8753 354.841 76.7506 355.173 77.4957 354.838Z" fill="#FAFBFC"/>
<path d="M118.28 342.777C118.872 342.618 119.223 342.01 119.064 341.419C118.906 340.827 118.298 340.476 117.706 340.635C117.114 340.793 116.763 341.401 116.922 341.993C117.08 342.585 117.688 342.936 118.28 342.777Z" fill="#FAFBFC"/>
<path fill-rule="evenodd" clip-rule="evenodd" d="M139.495 338.623C138.542 338.879 138.019 339.784 138.275 340.736C138.53 341.688 139.435 342.211 140.388 341.956C141.34 341.701 141.863 340.795 141.608 339.843C141.384 339.01 140.447 338.368 139.495 338.623Z" fill="#FAFBFC"/>
<path fill-rule="evenodd" clip-rule="evenodd" d="M171.748 331.384C171.39 331.48 171.216 331.782 171.312 332.139C171.407 332.496 171.709 332.67 172.066 332.575C172.424 332.479 172.598 332.177 172.502 331.82C172.526 331.431 172.105 331.289 171.748 331.384Z" fill="#FAFBFC"/>
<path fill-rule="evenodd" clip-rule="evenodd" d="M238.373 309.578C237.778 309.737 237.548 310.309 237.676 310.785C237.835 311.38 238.407 311.61 238.883 311.482C239.479 311.323 239.708 310.751 239.581 310.275C239.572 309.767 238.968 309.418 238.373 309.578Z" fill="#FAFBFC"/>
<path d="M349.479 118.052C349.479 107.006 340.524 98.0516 329.479 98.0516H253.999C242.954 98.0516 233.999 107.006 233.999 118.052V128.454C233.999 139.5 242.954 148.454 253.999 148.454H349.479V118.052Z" fill="white"/>
<circle cx="3.82804" cy="3.82804" r="3.82804" transform="matrix(-1 0 0 1 327.148 119.744)" fill="#F4A984"/>
<circle cx="3.82804" cy="3.82804" r="3.82804" transform="matrix(-1 0 0 1 311.197 119.744)" fill="#F4A984"/>
<circle cx="3.82804" cy="3.82804" r="3.82804" transform="matrix(-1 0 0 1 295.247 119.744)" fill="#F4A984"/>
<circle cx="3.82804" cy="3.82804" r="3.82804" transform="matrix(-1 0 0 1 279.297 119.744)" fill="#F4A984"/>
<circle cx="3.82804" cy="3.82804" r="3.82804" transform="matrix(-1 0 0 1 263.347 119.744)" fill="#F4A984"/>
<path d="M200 285.552C156.4 285.552 178.5 222.552 195 191.051C203.833 184.385 225.5 170.952 241.5 170.552C257.5 170.152 267.5 190.052 270.5 200.052C268.667 200.218 266.8 207.852 274 237.052C281.2 266.252 277.667 281.552 275 285.552H200Z" fill="#402B2B"/>
<path d="M245.599 270.592C241.487 263.403 244.571 252.277 244.571 252.277L231.891 254.845L219.211 252.277C219.211 252.277 220.753 257.583 220.239 263.403C224.694 268.538 234.976 278.124 245.599 270.592Z" fill="url(#paint2_linear_7370_115)"/>
<path d="M243.797 256.285C241.022 257.957 237.515 259.504 233.59 260.691C228.666 262.18 223.975 262.831 220.292 262.691C220.629 257.158 219.211 252.277 219.211 252.277L231.891 254.845L244.571 252.277C244.571 252.277 244.124 253.89 243.797 256.285Z" fill="url(#paint3_linear_7370_115)" style="mix-blend-mode:multiply"/>
<path d="M200.876 280.691C208.244 287.196 222.809 301.403 232.062 301.403C241.316 301.403 257.766 287.88 265.134 281.376C261.535 280.007 250.569 275.727 247.998 273.502C247.142 272.646 246.285 271.619 245.771 270.592C235.147 278.124 224.866 268.538 220.41 263.232C220.068 266.998 219.04 270.763 216.127 273.331C213.213 275.727 204.303 279.322 200.876 280.691Z" fill="url(#paint4_linear_7370_115)"/>
<path d="M266.776 213.422C265.576 211.197 263.692 210.854 262.492 211.197C262.492 211.197 259.065 200.242 256.666 192.197C248.612 188.431 241.073 185.179 231.991 184.494V184.323C230.62 184.323 228.221 184.323 226.85 184.323C221.196 184.494 215.541 184.665 210.058 185.692C208.687 186.035 207.316 186.377 205.945 186.377C204.232 195.449 201.319 211.368 200.119 211.197H199.948C199.776 211.197 199.776 211.197 199.605 211.025C198.406 210.683 197.035 211.025 195.835 213.079C193.779 216.845 195.835 224.377 198.577 226.602C199.948 227.629 201.147 228.485 202.004 228.998C203.375 235.845 205.774 242.349 209.372 246.286C218.797 256.385 227.536 258.611 229.935 258.953C230.106 258.953 230.449 258.953 230.62 258.953C230.62 258.953 230.792 258.953 230.963 258.953C232.676 258.782 242.101 257.07 252.211 246.115C255.809 242.349 258.38 239.611 259.922 229.512C260.95 228.998 261.978 228.142 263.692 226.773C266.776 224.719 268.832 217.188 266.776 213.422Z" fill="url(#paint5_linear_7370_115)"/>
<path d="M231.736 223.052C231.736 223.052 231.868 226.908 230.825 228.177C229.782 229.446 227.803 230.674 227.64 231.623C227.449 232.391 228.277 233.739 229.722 234.07C231.167 234.4 231.402 234.918 231.402 234.918C231.402 234.918 228.735 235.699 227.067 233.926C225.399 232.154 226.661 230.297 227.883 229.185C229.105 228.073 229.654 227.619 230.176 226.985C230.849 226.327 231.736 223.052 231.736 223.052Z" fill="#D87C60"/>
<path d="M242.066 240.052H221.364C220.689 240.052 220.212 240.707 220.483 241.326C221.943 244.661 225.524 249.552 231.5 249.552C237.451 249.552 241.284 244.7 242.929 241.367C243.237 240.743 242.762 240.052 242.066 240.052Z" fill="#D87C60"/>
<path fill-rule="evenodd" clip-rule="evenodd" d="M241.976 243.052H221.367C221.015 242.454 220.721 241.869 220.484 241.326C220.213 240.707 220.689 240.052 221.365 240.052H242.066C242.762 240.052 243.238 240.743 242.93 241.367C242.667 241.898 242.349 242.469 241.976 243.052Z" fill="white"/>
<path d="M251.598 171.999C277.129 175.251 271.132 206.404 266.163 211.881L262.5 218.052C260.667 214.885 256.9 206.152 256.5 196.552C252.667 199.052 241.2 204.052 226 204.052C207 204.052 201.792 207.197 200 216.052C195.545 206.124 192.481 186.035 203.447 174.738C218.526 158.99 241.316 155.224 251.598 171.999Z" fill="#402B2B"/>
<path d="M200.019 215.989L200.876 223.35C200.876 223.35 198.305 221.98 197.791 218.557C197.62 216.503 198.477 215.134 200.019 215.989Z" fill="#ED8A40"/>
<path d="M262.219 215.989L261.362 223.35C261.362 223.35 263.933 221.98 264.447 218.557C264.618 216.503 263.933 215.134 262.219 215.989Z" fill="#ED8A40"/>
<path d="M248.685 224.312C248.685 225.853 247.486 227.222 245.772 227.222C244.23 227.222 242.859 226.024 242.859 224.312C242.859 222.772 244.059 221.402 245.772 221.402C247.486 221.402 248.685 222.772 248.685 224.312Z" fill="#402B2B"/>
<path d="M218.184 227.222C219.792 227.222 221.097 225.919 221.097 224.312C221.097 222.705 219.792 221.402 218.184 221.402C216.575 221.402 215.271 222.705 215.271 224.312C215.271 225.919 216.575 227.222 218.184 227.222Z" fill="#402B2B"/>
<path d="M210.541 218.912C211.79 217.55 215.446 214.825 220.078 214.825" stroke="#402B2B" stroke-width="2"/>
<path d="M243.58 214.942C245.427 214.862 249.939 215.52 253.215 218.796" stroke="#402B2B" stroke-width="2"/>
<path d="M293.065 319.547C293.75 301.061 288.096 290.106 279.528 285.484C270.96 280.863 250.741 275.043 250.055 274.872L231.72 289.421L214.242 274.872C213.557 275.043 192.823 280.863 184.427 285.484C175.859 290.106 170.204 301.061 170.89 319.547C171.404 334.439 170.375 357.889 170.547 375.006H293.579C293.579 357.889 292.551 334.439 293.065 319.547Z" fill="url(#paint6_linear_7370_115)"/>
<path d="M241.83 281.205L237.032 278.98L231.548 289.079L226.065 278.98L221.096 281.205L228.293 292.845V375.006H234.975V292.331L241.83 281.205Z" fill="#EE4D47" fill-opacity="0.29" style="mix-blend-mode:multiply"/>
<path d="M220.239 263.232C220.068 268.196 227.094 281.034 227.094 281.034L214.927 292.844L210.986 275.728C210.986 275.728 214.927 265.286 220.239 263.232Z" fill="white"/>
<path d="M243.543 263.232C243.714 268.196 235.832 281.205 235.832 281.205L248.684 292.844L252.625 275.556C252.625 275.556 248.855 265.286 243.543 263.232Z" fill="white"/>
<path d="M233.607 295.754C233.607 296.781 232.75 297.637 231.722 297.637C230.694 297.637 229.837 296.781 229.837 295.754C229.837 294.727 230.694 293.872 231.722 293.872C232.75 293.872 233.607 294.727 233.607 295.754Z" fill="white"/>
<path d="M233.606 313.214C233.606 314.241 232.749 315.097 231.721 315.097C230.693 315.097 229.836 314.241 229.836 313.214C229.836 312.187 230.693 311.331 231.721 311.331C232.749 311.331 233.606 312.015 233.606 313.214Z" fill="white"/>
<path d="M233.606 330.331C233.606 331.358 232.749 332.213 231.721 332.213C230.693 332.213 229.836 331.358 229.836 330.331C229.836 329.304 230.693 328.448 231.721 328.448C232.749 328.448 233.606 329.304 233.606 330.331Z" fill="white"/>
<path d="M233.606 349.33C233.606 350.358 232.749 351.213 231.721 351.213C230.693 351.213 229.836 350.358 229.836 349.33C229.836 348.303 230.693 347.448 231.721 347.448C232.749 347.448 233.606 348.303 233.606 349.33Z" fill="white"/>
<path d="M173.631 290.619C173.631 290.619 155.467 339.403 154.097 347.448C152.897 355.493 163.178 374.15 167.976 374.835C175.002 375.862 180.656 373.808 187.682 361.826C194.536 349.844 193.337 298.664 193.337 298.664L173.631 290.619Z" fill="url(#paint7_linear_7370_115)"/>
<path d="M193.508 293.872C193.508 293.872 192.308 352.754 189.738 360.114C185.625 371.925 175.173 375.177 175.173 375.177H186.825C186.825 375.177 195.907 369.186 196.763 351.213C197.278 340.43 195.393 306.025 194.365 294.556C194.022 291.475 193.508 293.872 193.508 293.872Z" fill="#EE4D47" fill-opacity="0.29" style="mix-blend-mode:multiply"/>
<path d="M197.535 288.315L177.834 280.364L173.726 290.521L193.427 298.472L197.535 288.315Z" fill="white"/>
<path d="M271.989 302.259C271.989 302.259 264.963 335.637 264.449 349.331C263.935 363.024 264.449 374.835 264.449 374.835L269.418 375.177C269.418 375.177 270.618 315.268 271.989 302.259Z" fill="#EE4D47" fill-opacity="0.29" style="mix-blend-mode:multiply"/>
<path d="M212.356 256.043C202.931 256.043 199.847 251.422 197.962 244.404C197.105 240.638 196.763 230.539 196.763 230.197H199.504C199.504 230.368 199.847 240.467 200.704 243.89C202.417 250.566 204.988 253.989 214.241 253.304L214.412 256.043C213.727 256.043 213.041 256.043 212.356 256.043Z" fill="white"/>
<path d="M231.72 162.927C224.18 162.242 206.873 162.756 198.991 177.819C198.991 177.819 201.047 181.413 203.446 179.017C212.014 171.314 224.009 171.143 231.377 171.143C238.917 171.143 251.426 171.143 259.822 179.017C262.392 181.242 264.277 177.819 264.277 177.819C256.566 162.756 239.259 162.242 231.72 162.927Z" fill="white"/>
<path d="M272.33 214.62C272.33 214.62 271.988 204.179 271.816 201.269C271.474 195.62 270.617 186.377 268.732 181.413C262.563 164.467 242.515 161.215 232.062 161.215C221.438 161.215 201.047 164.467 194.878 181.242C193.165 186.035 192.308 194.593 191.794 200.413C191.623 203.836 191.451 214.449 191.451 214.449H194.364C194.364 214.449 194.364 203.836 194.707 200.413C195.05 195.962 195.906 189.458 198.134 183.296C203.275 168.747 222.295 167.206 231.548 167.206C240.973 167.206 260.336 168.747 265.476 183.296C267.875 190.143 268.732 197.161 269.075 201.611C269.246 204.521 269.417 214.62 269.417 214.62H272.33Z" fill="url(#paint8_linear_7370_115)"/>
<path d="M195.05 212.566H191.28V228.656H195.05V212.566Z" fill="white"/>
<path d="M201.733 231.737H197.449C195.393 231.737 193.68 230.025 193.68 227.971V213.251C193.68 211.197 195.393 209.485 197.449 209.485H201.733C202.247 209.485 202.59 209.827 202.59 210.341V230.71C202.59 231.223 202.247 231.737 201.733 231.737Z" fill="url(#paint9_linear_7370_115)"/>
<path d="M189.738 230.025H189.567C188.71 230.025 188.024 229.341 188.024 228.485V212.395C188.024 211.539 188.71 210.854 189.567 210.854H189.738C190.595 210.854 191.28 211.539 191.28 212.395V228.485C191.28 229.341 190.595 230.025 189.738 230.025Z" fill="url(#paint10_linear_7370_115)"/>
<path d="M268.177 228.934H271.947V212.844H268.177V228.934Z" fill="white"/>
<path d="M261.707 232.079H265.991C268.047 232.079 269.76 230.367 269.76 228.313V213.593C269.76 211.539 268.047 209.827 265.991 209.827H261.707C261.193 209.827 260.85 210.169 260.85 210.683V231.052C260.679 231.566 261.193 232.079 261.707 232.079Z" fill="url(#paint11_linear_7370_115)"/>
<path d="M273.53 230.368H273.702C274.559 230.368 275.244 229.683 275.244 228.827V212.737C275.244 211.881 274.559 211.197 273.702 211.197H273.53C272.674 211.197 271.988 211.881 271.988 212.737V228.827C271.988 229.683 272.674 230.368 273.53 230.368Z" fill="url(#paint12_linear_7370_115)"/>
<path d="M222.467 254.331C222.467 256.043 220.411 257.584 217.669 257.584C215.099 257.584 212.871 256.214 212.871 254.331C212.871 252.448 214.927 251.079 217.669 251.079C220.239 251.079 222.467 252.448 222.467 254.331Z" fill="url(#paint13_linear_7370_115)"/>
<path fill-rule="evenodd" clip-rule="evenodd" d="M186.654 243.377L186.655 243.376C188.249 241.884 190.074 240.854 191.828 239.985C194.981 237.945 198.657 235.625 200.02 234.989C202.762 233.62 204.475 236.016 200.534 239.44C199.679 240.183 198.686 240.974 197.657 241.758C199.797 240.938 201.691 240.234 202.59 239.953C205.503 239.098 206.874 241.836 202.247 244.404C200.365 245.448 198.002 246.577 195.86 247.55L196.593 249.881C196.593 249.881 198.65 247.998 199.335 247.485C203.619 244.575 205.846 246.971 203.962 249.539C201.905 252.106 198.821 259.467 199.849 264.602C200.534 268.025 200.02 272.818 199.164 276.584C198.307 280.178 192.995 290.791 192.995 290.791L179.287 285.998C179.287 285.998 182.371 282.746 181.857 274.872C181.705 272.291 180.677 269.576 179.654 266.875C178.371 263.485 177.096 260.119 177.573 257.07C178.43 252.278 185.455 244.576 186.655 243.377L186.654 243.377Z" fill="url(#paint14_linear_7370_115)"/>
<path opacity="0.3" d="M198.992 263.917C199.335 259.638 198.992 258.782 198.649 256.728C198.306 254.331 198.821 251.25 197.792 249.025C196.593 246.629 194.708 245.26 191.452 245.944C187.168 246.971 185.455 249.196 185.455 249.196C185.455 249.196 188.882 247.827 190.596 247.314C193.166 246.629 195.736 246.8 196.764 249.881C197.278 251.764 197.621 254.331 197.964 256.214C198.135 257.584 199.163 263.575 198.306 263.746C197.45 263.746 195.565 263.232 194.708 260.151C194.537 260.836 194.365 265.458 193.851 265.458C190.767 265.115 190.424 262.719 190.253 260.151C190.253 258.953 190.081 257.241 189.739 255.016C188.539 256.899 185.626 258.611 184.427 259.467C185.798 260.665 188.368 263.575 189.396 264.773C191.281 266.998 192.994 270.421 193.337 274.016C197.964 269.566 195.393 264.944 195.222 263.403C196.422 264.773 198.821 265.8 198.992 263.917Z" fill="#EB5046"/>
<path d="M393.309 263.917C393.309 261.349 391.252 259.467 388.511 259.467H261.88C259.31 259.467 257.082 261.521 257.082 263.917V342.655H393.137V263.917H393.309Z" fill="url(#paint15_linear_7370_115)"/>
<path d="M262.051 357.547H388.682C391.252 357.547 393.48 355.493 393.48 353.096V342.826H257.424V353.096C257.253 355.493 259.481 357.547 262.051 357.547Z" fill="#CA3F3A"/>
<path d="M345.159 355.664H311.23V371.754H345.159V355.664Z" fill="#CA3F3A"/>
<path d="M349.27 355.664H315.342V371.754H349.27V355.664Z" fill="url(#paint16_linear_7370_115)"/>
<path d="M343.616 370.213H301.634V374.835H343.616V370.213Z" fill="url(#paint17_linear_7370_115)"/>
<path d="M357.324 370.213H315.342V374.835H357.324V370.213Z" fill="url(#paint18_linear_7370_115)"/>
<path d="M400.334 263.917C400.334 261.349 398.278 259.467 395.537 259.467H269.077C266.507 259.467 264.279 261.521 264.279 263.917V342.655H400.334V263.917Z" fill="url(#paint19_linear_7370_115)"/>
<path d="M269.077 357.547H395.708C398.278 357.547 400.506 355.493 400.506 353.096V342.826H264.45V353.096C264.279 355.493 266.335 357.547 269.077 357.547Z" fill="url(#paint20_linear_7370_115)"/>
<path opacity="0.2" d="M344.644 293.872C344.644 300.718 339.16 306.196 332.306 306.196C325.452 306.196 319.969 300.718 319.969 293.872C319.969 287.025 325.452 281.547 332.306 281.547C339.16 281.547 344.644 287.025 344.644 293.872Z" fill="white"/>
<path d="M229.664 370.213H200.362V374.664H229.664V370.213Z" fill="url(#paint21_linear_7370_115)"/>
<path d="M278.329 370.213H216.812V374.664H278.329V370.213Z" fill="url(#paint22_linear_7370_115)"/>
<g clip-path="url(#clip1_7370_115)">
<path d="M469 341.022H389V374.953H469V341.022Z" fill="#FCDDD4"/>
<path fill-rule="evenodd" clip-rule="evenodd" d="M429.445 332.177V332.254C430.079 330.485 431.35 327.669 433.488 323.469C437.73 315.427 442.465 309.249 442.465 309.249C442.465 309.249 440.393 316.114 436.152 324.155C432.401 331.352 430.347 334.256 429.445 334.696V335.106C430.532 333.677 432.924 331.226 437.138 327.391C444.142 321.115 451.047 316.604 451.047 316.604C451.047 316.604 446.608 322.39 439.604 328.764C435.497 332.451 432.775 334.661 431.076 335.794C432.806 334.725 435.496 333.258 439.407 331.314C448.088 326.999 455.979 324.351 455.979 324.351C455.979 324.351 449.864 328.764 441.183 333.079C434.572 336.44 430.993 337.867 429.445 338.14V338.435C430.837 337.664 434.398 336.428 441.183 334.55C450.751 331.902 459.136 330.726 459.136 330.726C459.136 330.726 451.836 333.962 442.268 336.61C439.148 337.473 436.658 338.107 434.708 338.549C436.683 338.22 439.235 337.866 442.465 337.492C452.625 336.217 461.108 336.315 461.108 336.315C461.108 336.315 453.118 338.473 442.958 339.65C434.778 340.676 430.754 340.812 429.445 340.52V340.728H428.458V340.588C428.276 340.641 428.022 340.684 427.668 340.728H424.808C422.638 340.63 419.382 340.434 414.845 339.846C404.684 338.571 396.694 336.511 396.694 336.511C396.694 336.511 405.178 336.413 415.338 337.688C418.391 338.042 420.838 338.369 422.765 338.669C420.867 338.232 418.481 337.621 415.535 336.806C405.868 334.158 398.667 330.922 398.667 330.922C398.667 330.922 407.052 332.098 416.62 334.746C423.574 336.67 427.141 337.921 428.458 338.687V338.341C426.966 338.091 423.377 336.634 416.621 333.275C407.94 328.96 401.824 324.547 401.824 324.547C401.824 324.547 409.716 327.195 418.396 331.51C422.063 333.333 424.656 334.735 426.391 335.785C424.663 334.599 422.017 332.435 418.199 328.96C411.195 322.586 406.756 316.8 406.756 316.8C406.756 316.8 413.661 321.213 420.665 327.587C423.675 330.327 425.756 332.361 427.096 333.82C425.945 332.331 424.158 329.389 421.552 324.449C417.311 316.408 415.239 309.543 415.239 309.543C415.239 309.543 420.073 315.721 424.216 323.763C426.606 328.402 427.913 331.377 428.458 333.101V332.179C427.928 330.962 427.57 327.445 427.57 320.429C427.57 311.406 428.951 304.052 428.951 304.052C428.951 304.052 430.332 311.406 430.332 320.429C430.332 327.441 429.974 330.958 429.445 332.177ZM428.458 335.049C428.312 335.038 428.121 334.928 427.879 334.706C428.106 334.976 428.298 335.218 428.458 335.435V335.049ZM428.458 336.91C428.217 336.847 427.905 336.711 427.515 336.493C427.893 336.744 428.206 336.967 428.458 337.164V336.91ZM429.445 336.892C429.716 336.685 430.049 336.452 430.45 336.191C430.037 336.437 429.704 336.598 429.445 336.683V336.892ZM428.458 339.57C428.14 339.591 427.692 339.569 427.096 339.497C427.727 339.658 428.173 339.808 428.458 339.947V339.57ZM429.445 339.79C429.815 339.62 430.403 339.431 431.246 339.227C430.443 339.347 429.851 339.394 429.445 339.379V339.79Z" fill="#F37753"/>
<path d="M423.624 340.728H405.178C408.039 340.532 411.491 340.434 415.141 340.434C418.692 340.434 421.553 340.532 423.624 340.728Z" fill="#F37753"/>
<path d="M434.179 340.728H452.625C449.765 340.532 446.312 340.336 442.662 340.434C439.012 340.532 436.25 340.63 434.179 340.728Z" fill="#F37753"/>
</g>
<path d="M302 179.052C302 168.006 310.954 159.052 322 159.052H434.619C445.664 159.052 454.619 168.006 454.619 179.052V205.664C454.619 216.71 445.664 225.664 434.619 225.664H302V179.052Z" fill="#F69477"/>
<circle opacity="0.5" cx="336.571" cy="192.78" r="5.05919" fill="white"/>
<circle opacity="0.5" cx="357.651" cy="192.78" r="5.05919" fill="white"/>
<circle opacity="0.5" cx="378.731" cy="192.78" r="5.05919" fill="white"/>
<circle opacity="0.5" cx="399.811" cy="192.78" r="5.05919" fill="white"/>
<circle opacity="0.5" cx="420.891" cy="192.78" r="5.05919" fill="white"/>
</g>
<defs>
<linearGradient id="paint0_linear_7370_115" x1="185.408" y1="58.1181" x2="102.956" y2="208.965" gradientUnits="userSpaceOnUse">
<stop stop-color="#F37753"/>
<stop offset="1" stop-color="white" stop-opacity="0"/>
</linearGradient>
<linearGradient id="paint1_linear_7370_115" x1="98.5215" y1="24.0345" x2="146.127" y2="350.013" gradientUnits="userSpaceOnUse">
<stop stop-color="#F7A58D"/>
<stop offset="1" stop-color="#F58A6B"/>
</linearGradient>
<linearGradient id="paint2_linear_7370_115" x1="246.788" y1="262.548" x2="243.733" y2="228.762" gradientUnits="userSpaceOnUse">
<stop stop-color="#FFB3B6"/>
<stop offset="1" stop-color="#FFC8C1"/>
</linearGradient>
<linearGradient id="paint3_linear_7370_115" x1="219.38" y1="258.589" x2="248.114" y2="268.937" gradientUnits="userSpaceOnUse">
<stop stop-color="#FFB3B6" stop-opacity="0.31"/>
<stop offset="1" stop-color="#FFC8C1"/>
</linearGradient>
<linearGradient id="paint4_linear_7370_115" x1="272.363" y1="316.46" x2="266.234" y2="253.259" gradientUnits="userSpaceOnUse">
<stop stop-color="#FFB3B6"/>
<stop offset="1" stop-color="white"/>
</linearGradient>
<linearGradient id="paint5_linear_7370_115" x1="270.873" y1="249.908" x2="264.989" y2="199.279" gradientUnits="userSpaceOnUse">
<stop stop-color="#FFB3B6"/>
<stop offset="1" stop-color="#FFC8C1"/>
</linearGradient>
<linearGradient id="paint6_linear_7370_115" x1="232.053" y1="251.693" x2="232.053" y2="377.748" gradientUnits="userSpaceOnUse">
<stop stop-color="#F4A984"/>
<stop offset="1" stop-color="#EE4D47"/>
</linearGradient>
<linearGradient id="paint7_linear_7370_115" x1="173.709" y1="271.072" x2="173.709" y2="377.379" gradientUnits="userSpaceOnUse">
<stop stop-color="#F4A984"/>
<stop offset="1" stop-color="#EE4D47"/>
</linearGradient>
<linearGradient id="paint8_linear_7370_115" x1="231.891" y1="148.853" x2="231.891" y2="216.082" gradientUnits="userSpaceOnUse">
<stop stop-color="#F4A984"/>
<stop offset="1" stop-color="#EE4D47"/>
</linearGradient>
<linearGradient id="paint9_linear_7370_115" x1="198.135" y1="204.334" x2="198.135" y2="232.346" gradientUnits="userSpaceOnUse">
<stop stop-color="#F4A984"/>
<stop offset="1" stop-color="#EE4D47"/>
</linearGradient>
<linearGradient id="paint10_linear_7370_115" x1="189.652" y1="206.417" x2="189.652" y2="230.55" gradientUnits="userSpaceOnUse">
<stop stop-color="#F4A984"/>
<stop offset="1" stop-color="#EE4D47"/>
</linearGradient>
<linearGradient id="paint11_linear_7370_115" x1="265.288" y1="204.676" x2="265.288" y2="232.688" gradientUnits="userSpaceOnUse">
<stop stop-color="#F4A984"/>
<stop offset="1" stop-color="#EE4D47"/>
</linearGradient>
<linearGradient id="paint12_linear_7370_115" x1="273.616" y1="206.759" x2="273.616" y2="230.892" gradientUnits="userSpaceOnUse">
<stop stop-color="#F4A984"/>
<stop offset="1" stop-color="#EE4D47"/>
</linearGradient>
<linearGradient id="paint13_linear_7370_115" x1="217.669" y1="249.573" x2="217.669" y2="257.762" gradientUnits="userSpaceOnUse">
<stop stop-color="#F4A984"/>
<stop offset="1" stop-color="#EE4D47"/>
</linearGradient>
<linearGradient id="paint14_linear_7370_115" x1="191" y1="288.552" x2="213.5" y2="204.552" gradientUnits="userSpaceOnUse">
<stop stop-color="#FFB3B6"/>
<stop offset="0.239165" stop-color="#FFC5C7"/>
<stop offset="1" stop-color="white"/>
</linearGradient>
<linearGradient id="paint15_linear_7370_115" x1="306.105" y1="510.315" x2="306.105" y2="25.2427" gradientUnits="userSpaceOnUse">
<stop stop-color="#FFEDBA"/>
<stop offset="0.423008" stop-color="#F16D5E"/>
<stop offset="0.651925" stop-color="#EE4D47"/>
</linearGradient>
<linearGradient id="paint16_linear_7370_115" x1="327.551" y1="404.182" x2="327.551" y2="310.361" gradientUnits="userSpaceOnUse">
<stop stop-color="#FFEDBA"/>
<stop offset="1" stop-color="#EE4D47"/>
</linearGradient>
<linearGradient id="paint17_linear_7370_115" x1="316.741" y1="392.324" x2="316.741" y2="365.824" gradientUnits="userSpaceOnUse">
<stop stop-color="#FFEDBA"/>
<stop offset="1" stop-color="#EE4D47"/>
</linearGradient>
<linearGradient id="paint18_linear_7370_115" x1="330.449" y1="384.149" x2="330.449" y2="357.201" gradientUnits="userSpaceOnUse">
<stop stop-color="#FFEDBA"/>
<stop offset="1" stop-color="#EE4D47"/>
</linearGradient>
<linearGradient id="paint19_linear_7370_115" x1="313.24" y1="397.093" x2="313.24" y2="180.459" gradientUnits="userSpaceOnUse">
<stop stop-color="#FFEDBA"/>
<stop offset="1" stop-color="#EE4D47"/>
</linearGradient>
<linearGradient id="paint20_linear_7370_115" x1="313.405" y1="387.215" x2="313.405" y2="301.379" gradientUnits="userSpaceOnUse">
<stop stop-color="#FFEDBA"/>
<stop offset="1" stop-color="#EE4D47"/>
</linearGradient>
<linearGradient id="paint21_linear_7370_115" x1="210.907" y1="391.505" x2="210.907" y2="365.986" gradientUnits="userSpaceOnUse">
<stop stop-color="#FFEDBA"/>
<stop offset="1" stop-color="#EE4D47"/>
</linearGradient>
<linearGradient id="paint22_linear_7370_115" x1="238.95" y1="370.184" x2="238.95" y2="350.769" gradientUnits="userSpaceOnUse">
<stop stop-color="#FFEDBA"/>
<stop offset="1" stop-color="#EE4D47"/>
</linearGradient>
<clipPath id="clip0_7370_115">
<rect width="487" height="407" fill="white"/>
</clipPath>
<clipPath id="clip1_7370_115">
<rect width="80" height="71" fill="white" transform="translate(389 304.052)"/>
</clipPath>
</defs>
</svg>
